Coordinates
version=1
nRows=19
nColumns=36
inDegrees=yes

Units are S.I. units (second, meters, Newtons, ...)
If the header above contains a line with 'inDegrees', this indicates whether rotational values are in degrees (yes) or radians (no).

endheader
time	pelvis_tilt	pelvis_list	pelvis_rotation	pelvis_tx	pelvis_ty	pelvis_tz	hip_flexion_r	hip_adduction_r	hip_rotation_r	knee_angle_r	knee_angle_r_beta	ankle_angle_r	subtalar_angle_r	mtp_angle_r	hip_flexion_l	hip_adduction_l	hip_rotation_l	knee_angle_l	knee_angle_l_beta	ankle_angle_l	subtalar_angle_l	mtp_angle_l	lumbar_extension	lumbar_bending	lumbar_rotation	arm_flex_r	arm_add_r	arm_rot_r	elbow_flex_r	pro_sup_r	arm_flex_l	arm_add_l	arm_rot_l	elbow_flex_l	pro_sup_l
      1.38000000	     -3.50367223	      1.97250405	     -4.80266437	     -0.46048258	      1.07278933	     -0.58765172	     29.06054106	     -6.82448504	     -2.75792397	     12.13755188	      0.21184024	    -38.15121063	     -2.73961346	     -6.73568652	     29.03775800	     -5.31475602	    -10.17382079	     10.32581970	      0.18021955	    -37.64377947	     -1.92952371	     -6.73568652	    -16.59969625	      0.88146224	     -0.62098593	     76.17771735	    -60.67602755	     61.70662639	     91.43416130	    102.02981990	     52.25269813	    -59.54202485	     33.60089554	     76.75945240	    110.99076066
      1.39000000	     -3.00085612	      1.86657435	     -4.78623879	     -0.44731409	      1.04965187	     -0.58797945	     29.24040449	     -6.87035739	     -2.38584620	     13.25714506	      0.23138083	    -38.67552575	     -2.74585389	     -6.76320826	     29.08110457	     -5.46695493	     -9.61646260	     11.72458252	      0.20463257	    -37.79228832	     -2.08494297	     -6.76320826	    -16.80183793	      1.04534852	     -0.58611419	     76.33743018	    -64.07472771	     62.11487719	     94.30929215	    101.74393047	     51.10286660	    -63.49407300	     33.95600366	     79.32726169	    110.58477406
      1.40000000	     -2.44405635	      1.63291491	     -4.81581276	     -0.43401258	      1.02547798	     -0.58824600	     29.48406463	     -6.70356196	     -1.72668787	     14.58159855	      0.25449690	    -40.38287085	     -3.01596101	     -7.23033810	     29.23098868	     -5.73468945	     -8.80707202	     13.61023408	      0.23754340	    -38.87482296	     -2.76025177	     -7.23033810	    -17.27922048	      1.65936514	     -3.99436296	     80.88651558	    -62.35312703	     67.15492325	     94.44564957	     99.43579925	     34.95066063	    -71.49308367	     18.74822049	     85.42808909	    110.29109297
      1.41000000	     -1.81371502	      1.39683371	     -4.82113367	     -0.42079073	      1.00036001	     -0.58836847	     29.80661992	     -6.46681074	     -1.00248795	     16.21019833	      0.28292133	    -42.27831013	     -3.50527383	     -7.24628467	     29.47117019	     -5.95959057	     -7.71279250	     15.83215989	      0.27632332	    -40.28597680	     -3.46994982	     -7.24628467	    -17.80152736	      1.78077762	     -3.05734445	     80.39460289	    -67.87999301	     66.81496092	     98.41941814	     99.50297013	     32.18987001	    -75.06151015	     17.76588400	     87.54287604	    109.86846177
      1.42000000	     -1.34001349	      1.17963479	     -4.84683202	     -0.40842830	      0.97439130	     -0.58852754	     30.69944804	     -6.13053169	     -0.38785293	     19.71018058	      0.34400755	    -39.81309103	     -5.82113658	     -7.27021073	     30.22294974	     -6.15154938	     -6.58198238	     19.35035258	      0.33772736	    -37.70362063	     -5.05095667	     -7.27021073	    -18.39544257	      1.87412169	     -1.70120944	     79.02490426	    -74.49974425	     65.69222562	    102.81264307	     98.46886971	     29.27011246	    -78.43221901	     16.59775200	     89.64958749	    108.11274593
      1.43000000	     -1.24974053	      1.04023194	     -4.91920680	     -0.39704662	      0.94721592	     -0.58860711	     32.83070500	     -5.76854706	      0.10107183	     26.93880503	      0.47017084	    -28.71914422	     -9.79273096	     -7.43677213	     32.06010190	     -6.31902758	     -5.81247002	     25.58234879	      0.44649622	    -27.20363953	     -7.99317958	     -7.43677213	    -19.56200666	      2.02658947	    -15.10536703	     85.01474558	    -58.13933108	     70.65422640	     94.26351148	     99.26347313	    -70.96774753	    -65.30460468	    -83.57204337	    101.70084112	    107.39402294
      1.44000000	     -1.04039770	      0.99632405	     -5.03221306	     -0.38634510	      0.91902840	     -0.58865588	     35.63666701	     -5.44220081	      0.86195906	     36.75857781	      0.64155821	    -12.13115941	    -11.95944833	     -7.46306637	     34.48751759	     -6.38370761	     -5.30467440	     34.08475866	      0.59489126	    -11.77888325	    -10.71035684	     -7.46306637	    -20.26117162	      1.59520162	    -16.79863269	     83.59813776	    -60.26344967	     69.23375339	     95.59108848	     98.79612870	    -80.37810632	    -58.12403123	    -91.69332230	    104.55459550	    106.12555290
      1.45000000	     -0.89836327	      0.93205686	     -5.15296991	     -0.37625945	      0.89093233	     -0.58866239	     38.53017718	     -4.91068512	      1.97643388	     45.76845765	      0.79881028	      1.55284246	    -12.62918271	     -7.47037723	     37.30576651	     -6.50316804	     -4.86731539	     42.61395665	      0.74375385	      1.24565986	    -12.04036313	     -7.47037723	    -20.96262708	      1.15859188	    -17.34918396	     80.71038654	    -64.18613563	     66.93592439	     97.92077086	     95.88608132	    -85.58140192	    -52.26967909	    -95.21560543	    106.65193604	    102.28602894
      1.46000000	     -1.84324776	      0.81719825	     -5.15578770	     -0.36815190	      0.86334275	     -0.58868902	     42.23601349	     -4.25998093	      2.94708344	     52.68675439	      0.91955734	      9.92978190	    -13.69987635	     -7.47643027	     41.47694888	     -6.72715981	     -4.02252738	     49.93327439	      0.87150004	      8.80381123	    -13.41641046	     -7.47643027	    -20.90436894	      0.81166942	    -17.34154030	     72.10366186	    -68.69661051	     58.39507567	    100.11446218	     96.30447044	    -88.17595817	    -46.97171890	    -96.49445056	    108.06905003	    102.48116913
      1.47000000	     -4.17803089	      0.77370297	     -5.26356744	     -0.36208204	      0.83627288	     -0.58866488	     47.38924811	     -3.62085056	      3.77756260	     58.35522955	      1.01849089	     14.48738837	    -14.84514813	     -7.48292958	     47.61085266	     -7.22318681	     -3.05551201	     56.89887371	      0.99307269	     12.50951907	    -14.30941480	     -7.48292958	    -19.63600917	      0.69308812	    -15.89622162	     54.48991814	    -74.18742249	     41.58488719	    103.16903895	     96.71513464	    -88.25514889	    -43.80811381	    -95.16404536	    108.77535523	    102.54905570
      1.48000000	     -6.76284886	      1.01512569	     -5.61922914	     -0.35659716	      0.81092651	     -0.58829820	     53.23866476	     -2.92394386	      5.02589024	     64.07483937	      1.11831691	     16.55929354	    -15.69566616	     -7.49229100	     54.35882055	     -7.69442404	     -2.16502387	     63.96254977	      1.11635709	     14.02011514	    -14.56601261	     -7.49229100	    -18.32576978	      0.37451249	    -13.31636330	     16.91169161	    -77.03211302	      4.81763693	    106.30652583	     99.74915388	    -87.16543376	    -42.21283435	    -92.50056878	    108.92327682	    103.71231649
      1.49000000	     -8.15556480	      1.26703209	     -6.05817943	     -0.34995105	      0.78942527	     -0.58772424	     57.92528020	     -2.17267311	      6.20164001	     69.97839427	      1.22135339	     17.77270008	    -16.12681968	     -7.49720804	     59.53930350	     -8.20362936	     -1.67637047	     70.61821210	      1.23252031	     14.82050574	    -14.51690914	     -7.49720804	    -18.41017919	      0.14412574	    -10.14036129	    -21.27366244	    -73.12686309	    -32.29444525	    109.24899027	    100.77611196	    -84.71898764	    -41.77555794	    -88.27879405	    108.58799422	    103.48758598
      1.50000000	     -8.19756889	      1.38238542	     -6.36404711	     -0.34268755	      0.77186655	     -0.58718325	     60.71939992	     -1.62885948	      6.96629236	     75.40487473	      1.31606334	     19.23004623	    -16.13018347	     -7.49828911	     62.43195548	     -8.63742988	     -1.48709891	     76.09728535	      1.32814818	     15.93267412	    -14.47404744	     -7.49828911	    -19.97330173	      0.04234282	     -7.58506024	    -37.29230717	    -65.90605218	    -47.22781812	    110.75472347	    101.74776977	    -81.92660306	    -41.20747480	    -83.15958693	    107.74106613	    104.06833429
      1.51000000	     -7.81435438	      1.46648207	     -6.50331569	     -0.33606991	      0.75647554	     -0.58687506	     62.45711822	     -1.40378847	      7.36413868	     79.80464517	      1.39285382	     20.39456118	    -16.67772365	     -7.49831158	     64.02627111	     -8.93739235	     -1.54726850	     80.19495420	      1.39966599	     17.11057617	    -15.16025034	     -7.49831158	    -21.91557820	     -0.28343862	     -7.56515985	    -38.06832891	    -60.64668030	    -46.56073576	    109.56248209	    101.65585584	    -80.05237648	    -37.59736982	    -78.57405181	    107.16329951	    104.18705695
      1.52000000	     -7.76002770	      1.47767549	     -6.52282363	     -0.33025892	      0.74134215	     -0.58726174	     64.09459026	     -1.40801983	      7.48351900	     83.38862543	      1.45540607	     22.59038854	    -15.80637632	     -7.49858376	     65.50049968	     -9.13556437	     -1.56043942	     83.49310656	      1.45722961	     19.34422049	    -15.09758469	     -7.49858376	    -23.56165191	      0.08579170	     -5.32985303	    -43.83806421	    -53.66048200	    -51.00716211	    109.93593793	    102.96099424	    -76.19712943	    -37.87857558	    -71.85068722	    105.59278283	    104.44763555
      1.53000000	     -8.03816497	      1.66730164	     -6.51038532	     -0.32538128	      0.72665000	     -0.58819594	     65.85744711	     -1.55724022	      7.72407314	     86.36497984	      1.50735326	     23.80731627	    -16.20163003	     -7.49860880	     67.00669052	     -9.01784149	     -1.68252352	     86.15563832	      1.50369956	     21.09768324	    -16.09813204	     -7.49860880	    -24.70892167	      0.05326834	     -5.22326889	    -43.13942642	    -49.08155421	    -48.83413268	    108.51847510	    102.85867704	    -73.38468215	    -35.39634919	    -66.25667828	    104.55075203	    104.49662902
      1.54000000	     -8.54484777	      1.88087962	     -6.51881585	     -0.32098529	      0.71251653	     -0.58956668	     67.71484255	     -1.88299740	      7.89105073	     89.10182319	      1.55512018	     26.43421656	    -14.78817767	     -7.49869987	     68.59764675	     -8.68579456	     -1.49991414	     88.64388409	      1.54712764	     23.46034697	    -16.09142806	     -7.49869987	    -25.58265020	      0.19931590	     -4.70918550	    -42.97210953	    -44.66548945	    -47.23346067	    107.41982347	    103.58813052	    -69.84219789	    -33.77459833	    -60.06402828	    103.01084694	    104.77898201
      1.55000000	     -9.30295127	      2.04341293	     -6.50541616	     -0.31695690	      0.69896426	     -0.59105877	     69.65359174	     -2.06759245	      8.18390896	     91.54320095	      1.59773026	     28.50586487	    -13.90469698	     -7.49877600	     70.45925912	     -8.31367321	     -1.13627356	     91.05480393	      1.58920613	     25.35083904	    -16.23350574	     -7.49877600	    -26.11503342	      0.45146619	     -4.21264726	    -42.23190057	    -40.51947415	    -45.52356661	    106.18225344	    104.45201133	    -65.97360302	    -32.23494657	    -53.93235027	    101.48595809	    105.08394519
      1.56000000	    -10.24056680	      2.21974197	     -6.55288007	     -0.31344554	      0.68606532	     -0.59233099	     71.74762964	     -2.07716460	      8.56787717	     93.75651359	      1.63635986	     29.45385456	    -14.04010869	     -7.49878798	     72.53162310	     -8.00266828	     -0.75723742	     93.28118234	      1.62806376	     26.46267984	    -16.82178474	     -7.49878798	    -26.40410677	      0.51841142	     -4.07782523	    -40.28169750	    -36.95623248	    -42.94847118	    104.72006812	    104.54103800	    -62.35835488	    -30.13357886	    -48.67855260	    100.52426136	    105.24716763
